<svg width="25" height="15" viewBox="0 0 25 15" fill="none" xmlns="http://www.w3.org/2000/svg">
<path fill-rule="evenodd" clip-rule="evenodd" d="M22.5068 0H2.36794C1.5122 0 0.818481 0.708368 0.818481 1.58044V13.4196C0.818481 14.2924 1.51394 15 2.36794 15H22.5068C23.3625 15 24.0563 14.2916 24.0563 13.4196V1.58044C24.0563 0.707589 23.3608 0 22.5068 0Z" fill="#227FBB"/>
<path fill-rule="evenodd" clip-rule="evenodd" d="M2.91477 5.39015L2.46739 4.27888L2.02256 5.39015H2.91477ZM12.7706 4.94764C12.6808 5.00322 12.5745 5.00507 12.4473 5.00507H11.6532V4.38591H12.4581C12.572 4.38591 12.6908 4.39112 12.7681 4.43619C12.8528 4.4768 12.9053 4.56323 12.9053 4.68263C12.9053 4.80446 12.8554 4.90249 12.7706 4.94764C12.8554 4.90249 12.7706 4.94764 12.7706 4.94764ZM18.4353 5.39015L17.983 4.27888L17.5331 5.39015H18.4353ZM7.87593 6.593H7.20584L7.20337 4.40979L6.25556 6.593H5.68165L4.73137 4.40785V6.593H3.40192L3.15076 5.97123H1.7898L1.53608 6.593H0.826152L1.99666 3.80542H2.96781L4.07951 6.44468V3.80542H5.14634L6.00176 5.69646L6.78757 3.80542H7.87585V6.593H7.87593ZM10.5466 6.593H8.36307V3.80542H10.5466V4.38591H9.01675V4.88837H10.5099V5.45977H9.01675V6.01646H10.5466V6.593ZM13.6254 4.55617C13.6254 5.00061 13.3344 5.23023 13.1648 5.29918C13.3078 5.35467 13.43 5.45271 13.4881 5.53393C13.5804 5.67258 13.5963 5.79643 13.5963 6.04539V6.593H12.9371L12.9346 6.24146C12.9346 6.07372 12.9503 5.8325 12.8314 5.69839C12.7359 5.60035 12.5903 5.57908 12.355 5.57908H11.6533V6.593H10.9997V3.80542H12.5031C12.8372 3.80542 13.0833 3.81442 13.2946 3.93894C13.5014 4.06346 13.6254 4.24524 13.6254 4.55617C13.6254 4.55617 13.6254 4.24524 13.6254 4.55617ZM14.6714 6.593H14.0045V3.80542H14.6714V6.593ZM22.4089 6.593H21.4827L20.2437 4.50076V6.593H18.9125L18.6581 5.97123H17.3003L17.0535 6.593H16.2887C15.9709 6.593 15.5687 6.52136 15.3408 6.28468C15.1111 6.04799 14.9916 5.7274 14.9916 5.22048C14.9916 4.80706 15.063 4.42913 15.344 4.13048C15.5553 3.908 15.8862 3.80542 16.3367 3.80542H16.9695V4.40272H16.3499C16.1114 4.40272 15.9767 4.43888 15.847 4.56786C15.7355 4.68523 15.6591 4.90712 15.6591 5.19929C15.6591 5.49794 15.7173 5.71327 15.8388 5.85394C15.9394 5.96425 16.1223 5.99771 16.2943 5.99771H16.5879L17.5091 3.80551H18.4885L19.5952 6.44216V3.80551H20.5904L21.7394 5.7469V3.80551H22.4089V6.593ZM0.818564 7.14052H1.93538L2.1872 6.52136H2.75096L3.00212 7.14052H5.19954V6.66715L5.39568 7.14254H6.53642L6.73256 6.66009V7.14052H12.1936L12.191 6.12417H12.2967C12.3707 6.12677 12.3923 6.13375 12.3923 6.25828V7.14052H15.2167V6.90392C15.4445 7.02836 15.7989 7.14052 16.2651 7.14052H17.4534L17.7077 6.52136H18.2714L18.5201 7.14052H20.8099V6.55239L21.1567 7.14052H22.9916V3.25269H21.1757V3.71184L20.9214 3.25269H19.058V3.71184L18.8245 3.25269H16.3075C15.8862 3.25269 15.5159 3.31263 15.2167 3.4797V3.25269H13.4798V3.4797C13.2894 3.30751 13.03 3.25269 12.7416 3.25269H6.39595L5.97017 4.25685L5.53293 3.25269H3.53422V3.71184L3.31465 3.25269H1.61007L0.818481 5.10117V7.14052H0.818564ZM24.0685 9.19324H22.8772C22.7582 9.19324 22.6792 9.19778 22.6127 9.2436C22.5437 9.28875 22.5172 9.35576 22.5172 9.44421C22.5172 9.5494 22.5754 9.62095 22.6601 9.65189C22.729 9.67636 22.8031 9.68351 22.912 9.68351L23.2663 9.69317C23.6237 9.70217 23.8624 9.76481 24.0079 9.91758C24.0343 9.93885 24.0503 9.96273 24.0685 9.98661V9.19324ZM24.0685 11.0315C23.9097 11.2682 23.6003 11.3881 23.1815 11.3881H21.9192V10.7902H23.1764C23.3011 10.7902 23.3883 10.7735 23.4409 10.7212C23.4864 10.6781 23.5182 10.6154 23.5182 10.5394C23.5182 10.4581 23.4864 10.3936 23.4383 10.355C23.3909 10.3124 23.3218 10.2931 23.208 10.2931C22.5943 10.2718 21.8286 10.3124 21.8286 9.43009C21.8286 9.02567 22.0805 8.59997 22.7664 8.59997H24.0684V8.04522H22.8587C22.4936 8.04522 22.2285 8.13434 22.0406 8.2729V8.04522H20.2514C19.9652 8.04522 19.6294 8.11752 19.4705 8.2729V8.04522H16.2753V8.2729C16.021 8.08591 15.5919 8.04522 15.3939 8.04522H13.2863V8.2729C13.0851 8.07431 12.6377 8.04522 12.365 8.04522H10.0063L9.46652 8.64067L8.96099 8.04522H5.4375V11.9357H8.89467L9.45085 11.3309L9.97478 11.9357L12.1058 11.9377V11.0225H12.3153C12.5981 11.0269 12.9315 11.0153 13.2257 10.8857V11.9357H14.9834V10.9217H15.0682C15.1765 10.9217 15.1871 10.9262 15.1871 11.0364V11.9356H20.5267C20.8657 11.9356 21.22 11.8471 21.4163 11.6866V11.9356H23.11C23.4624 11.9356 23.8066 11.8852 24.0685 11.7562V11.0315ZM21.4611 9.91758C21.5884 10.0519 21.6566 10.2214 21.6566 10.5083C21.6566 11.1081 21.289 11.3881 20.6298 11.3881H19.3567V10.7902H20.6247C20.7486 10.7902 20.8366 10.7735 20.8917 10.7212C20.9366 10.6781 20.9689 10.6154 20.9689 10.5394C20.9689 10.4581 20.934 10.3936 20.8891 10.355C20.8391 10.3124 20.7702 10.2931 20.6563 10.2931C20.0451 10.2718 19.2795 10.3124 19.2795 9.43009C19.2795 9.02567 19.5288 8.59997 20.2141 8.59997H21.5245V9.19341H20.3254C20.2066 9.19341 20.1293 9.19795 20.0635 9.24377C19.9919 9.28892 19.9654 9.35593 19.9654 9.44438C19.9654 9.54957 20.0262 9.62112 20.1084 9.65206C20.1774 9.67653 20.2514 9.68367 20.3628 9.68367L20.7147 9.69334C21.0695 9.70217 21.3131 9.76473 21.4611 9.91758C21.4611 9.91758 21.3131 9.76473 21.4611 9.91758ZM15.563 9.74539C15.4755 9.79827 15.3674 9.80281 15.2402 9.80281H14.4462V9.17659H15.251C15.3674 9.17659 15.4839 9.17911 15.563 9.22695C15.6477 9.2721 15.6983 9.35845 15.6983 9.47776C15.6983 9.59707 15.6477 9.69317 15.563 9.74539C15.6477 9.69317 15.563 9.74539 15.563 9.74539ZM15.9577 10.0924C16.1032 10.1471 16.2222 10.2452 16.2779 10.3265C16.3702 10.4626 16.3836 10.5896 16.3862 10.8354V11.3881H15.73V11.0393C15.73 10.8715 15.7458 10.6232 15.6243 10.4935C15.5288 10.3936 15.3832 10.3698 15.1448 10.3698H14.4462V11.3881H13.7894V8.59989H15.2985C15.6295 8.59989 15.8705 8.61477 16.085 8.73147C16.2913 8.85852 16.421 9.03256 16.421 9.35063C16.421 9.79567 16.1298 10.0228 15.9577 10.0924C16.1298 10.0228 15.9577 10.0924 15.9577 10.0924ZM16.7835 8.59989H18.965V9.17651H17.4344V9.68342H18.9277V10.2523H17.4344V10.8071L18.965 10.8096V11.3881H16.7835V8.59989ZM12.3734 9.88664H11.5287V9.17659H12.381C12.6169 9.17659 12.7808 9.27463 12.7808 9.51846C12.7808 9.7596 12.6245 9.88664 12.3734 9.88664ZM10.8776 11.1345L9.87407 9.9988L10.8776 8.89913V11.1345ZM8.28595 10.8071H6.67886V10.2523H8.11389V9.68342H6.67886V9.17651H8.31763L9.03258 9.98905L8.28595 10.8071ZM13.4825 9.51846C13.4825 10.293 12.9156 10.4529 12.3443 10.4529H11.5287V11.3881H10.2582L9.45333 10.4651L8.61687 11.3881H6.02775V8.59989H8.65671L9.46091 9.51383L10.2923 8.59989H12.381C12.8997 8.59989 13.4825 8.74627 13.4825 9.51846C13.4825 9.51846 13.4825 8.74627 13.4825 9.51846Z" fill="white"/>
</svg>
