<svg width="34" height="10" viewBox="0 0 34 10" fill="none" xmlns="http://www.w3.org/2000/svg">
<path d="M12.4662 9.73824L14.1416 0.314209H16.7594L15.1364 9.73824H12.4662Z" fill="#3C58BF"/>
<path d="M12.4662 9.73824L14.6128 0.314209H16.7594L15.1364 9.73824H12.4662Z" fill="#293688"/>
<path d="M24.6128 0.418847C24.0892 0.209424 23.2515 0 22.2044 0C19.5866 0 17.7018 1.30889 17.7018 3.1937C17.7018 4.60731 19.0107 5.34029 20.0578 5.81149C21.1049 6.28269 21.4191 6.59682 21.4191 7.01567C21.4191 7.64394 20.5814 7.95807 19.8484 7.95807C18.8013 7.95807 18.2254 7.80101 17.3353 7.43452L16.9688 7.27745L16.6023 9.42404C17.2306 9.68581 18.3824 9.94759 19.5866 9.94759C22.3615 9.94759 24.1939 8.6387 24.1939 6.64918C24.1939 5.54971 23.5133 4.71202 21.9426 4.03139C21.0002 3.56019 20.4243 3.29841 20.4243 2.82721C20.4243 2.40836 20.8955 1.98952 21.9426 1.98952C22.8327 1.98952 23.4609 2.14659 23.9321 2.35601L24.1939 2.46072L24.6128 0.418847Z" fill="#3C58BF"/>
<path d="M24.6128 0.418847C24.0892 0.209424 23.2515 0 22.2044 0C19.5866 0 18.173 1.30889 18.173 3.1937C18.173 4.60731 19.0107 5.34029 20.0578 5.81149C21.1049 6.28269 21.4191 6.59682 21.4191 7.01567C21.4191 7.64394 20.5814 7.95807 19.8484 7.95807C18.8013 7.95807 18.2254 7.80101 17.3353 7.43452L16.9688 7.27745L16.6023 9.42404C17.2306 9.68581 18.3824 9.94759 19.5866 9.94759C22.3615 9.94759 24.1939 8.6387 24.1939 6.64918C24.1939 5.54971 23.5133 4.71202 21.9426 4.03139C21.0002 3.56019 20.4243 3.29841 20.4243 2.82721C20.4243 2.40836 20.8955 1.98952 21.9426 1.98952C22.8327 1.98952 23.4609 2.14659 23.9321 2.35601L24.1939 2.46072L24.6128 0.418847Z" fill="#293688"/>
<path d="M29.1154 0.314209C28.4871 0.314209 28.0159 0.366564 27.7542 0.994833L23.8275 9.73824H26.6547L27.1783 8.16757H30.529L30.8432 9.73824H33.3562L31.1573 0.314209H29.1154ZM27.9112 6.5969C28.0683 6.1257 28.9583 3.82204 28.9583 3.82204C28.9583 3.82204 29.1678 3.24613 29.3248 2.87964L29.4819 3.76969C29.4819 3.76969 30.0055 6.1257 30.1102 6.64925H27.9112V6.5969Z" fill="#3C58BF"/>
<path d="M29.7437 0.314209C29.1154 0.314209 28.6442 0.366564 28.3824 0.994833L23.8275 9.73824H26.6547L27.1783 8.16757H30.529L30.8432 9.73824H33.3562L31.1573 0.314209H29.7437ZM27.9112 6.5969C28.1207 6.07334 28.9583 3.82204 28.9583 3.82204C28.9583 3.82204 29.1678 3.24613 29.3248 2.87964L29.4819 3.76969C29.4819 3.76969 30.0055 6.1257 30.1102 6.64925H27.9112V6.5969Z" fill="#293688"/>
<path d="M7.64955 6.91117L7.38777 5.54992C6.91657 3.97925 5.39825 2.25151 3.72287 1.41381L6.07888 9.79073H8.90609L13.1469 0.366699H10.3197L7.64955 6.91117Z" fill="#3C58BF"/>
<path d="M7.64955 6.91117L7.38777 5.54992C6.91657 3.97925 5.39825 2.25151 3.72287 1.41381L6.07888 9.79073H8.90609L13.1469 0.366699H10.8433L7.64955 6.91117Z" fill="#293688"/>
<path d="M0.37207 0.314209L0.843272 0.418921C4.19404 1.20426 6.49769 3.19378 7.38774 5.54978L6.44534 1.09955C6.28827 0.471276 5.81707 0.314209 5.24116 0.314209H0.37207Z" fill="#FFBC00"/>
<path d="M0.37207 0.314209C3.72284 1.09955 6.49769 3.14142 7.38774 5.49743L6.49769 1.78017C6.34063 1.1519 5.81707 0.785411 5.24116 0.785411L0.37207 0.314209Z" fill="#F7981D"/>
<path d="M0.37207 0.314209C3.72284 1.09955 6.49769 3.14142 7.38774 5.49743L6.75947 3.45555C6.60241 2.82729 6.39298 2.19902 5.66 1.93724L0.37207 0.314209Z" fill="#ED7C00"/>
<path d="M10.2673 6.5969L8.4872 4.81681L7.6495 6.80633L7.44008 5.49743C6.96888 3.92676 5.45056 2.19902 3.77518 1.36133L6.13119 9.73825H8.9584L10.2673 6.5969ZM15.1364 9.73825L12.8851 7.43459L12.4662 9.73825H15.1364ZM21.1573 6.49219C21.3667 6.70161 21.4714 6.85868 21.4191 7.06811C21.4191 7.69638 20.5814 8.01051 19.8484 8.01051C18.8013 8.01051 18.2254 7.85344 17.3353 7.48695L16.9688 7.32989L16.6023 9.47647C17.2306 9.73825 18.3824 10 19.5866 10C21.262 10 22.6232 9.52883 23.4086 8.69113L21.1573 6.49219ZM24.1939 9.73825H26.6546L27.1782 8.16758H30.529L30.8431 9.73825H33.3562L32.4661 5.91628L29.3248 2.87964L29.4819 3.71734C29.4819 3.71734 30.0054 6.07335 30.1101 6.5969H27.9112C28.1206 6.07335 28.9583 3.82205 28.9583 3.82205C28.9583 3.82205 29.1677 3.24614 29.3248 2.87964" fill="#051244"/>
</svg>
